<svg xmlns="http://www.w3.org/2000/svg" xmlns:xlink="http://www.w3.org/1999/xlink" version="1.1" style="enable-background:new 0 0 1152.73 453.45;" xml:space="preserve" width="65.69230769230768" height="58.69230769230771"><rect id="backgroundrect" width="100%" height="100%" x="0" y="0" fill="none" stroke="none" style="" class=""/>
<style type="text/css">
	.st0{fill:#FFFFFF;}
</style>





<g class="currentLayer" style=""><title>Layer 1</title><g class=""><g id="svg_6" class="" fill="#ffffff" fill-opacity="1">
	<path d="M32.621106594069886,55.00715854633809 c-13.077286246865988,0 -23.71814551413059,-10.683485521972178 -23.720389001220465,-23.812371971905232 c0,-4.049494197219611 1.027517087161541,-8.04065773010254 2.9726203940808773,-11.54947153866291 l-4.679914069473743,-15.673000809848308 c-0.024678357988596043,-0.08300902232527752 0,-0.17274850592017174 0.06506112560629868,-0.23107917025685312 c0.04262625470757495,-0.03813928052783013 0.09646994486451178,-0.0583306643366815 0.15031363502144862,-0.0583306643366815 c0.02916533216834077,0 0.0583306643366815,0.0067304612696171 0.08749599650502222,0.017947896718978926 l14.618561877608299,6.1381806778907775 c3.2844650995731355,-1.6310151143372058 6.817957266122103,-2.458861850500107 10.504006554782391,-2.458861850500107 c3.8116845656931395,0 7.59420379921794,0.928803655207157 10.948216998577116,2.6854540465772154 l14.629779313057659,-6.3064422096312045 c0.02916533216834077,-0.011217435449361835 0.0583306643366815,-0.017947896718978926 0.08973948359489442,-0.017947896718978926 c0.053843690156936824,0 0.10768738031387334,0.020191383808851302 0.15031363502144862,0.0583306643366815 c0.06506112560629868,0.0583306643366815 0.08973948359489442,0.15031363502144862 0.06281763851642608,0.23332265734672547 l-5.00073272332549,15.852479777038097 c1.8620942845940593,3.45048314422369 2.8447416299581527,7.3519071935117255 2.8447416299581527,11.307174932956695 c0.002243487089872363,13.131129937022925 -10.638615780174733,23.816858946084974 -23.720389001220465,23.819102433174848 H32.621106594069886 z" id="svg_7" fill="#ffffff" fill-opacity="1"/>
	<path d="M7.40879867808431,3.9072531003153443 l14.712788335382937,6.1785634455084795 c3.1588298225402833,-1.5861453725397587 6.723730808347463,-2.4812967213988304 10.497276093512774,-2.4812967213988304 c0,0 0.002243487089872363,0 0.002243487089872363,0 c3.9485372781753543,0 7.668238873183727,0.9781603711843481 10.936999563127756,2.7101324045658113 l14.726249257922174,-6.34906846433878 l-5.014193645864726,15.895106031745671 l-0.08749599650502222,-0.08076553523540524 c1.8710682329535486,3.380935044437647 2.9344811135530473,7.275628632456064 2.9344811135530473,11.412618826180696 c0.002243487089872363,13.027929530888796 -10.519710964411498,23.592510237097738 -23.49604029223323,23.594753724187612 c0,0 -0.002243487089872363,0 -0.002243487089872363,0 c-12.976329327821732,0 -23.493796805143354,-10.56233721911907 -23.49604029223323,-23.588023262917996 c0,-4.184103422611951 1.0836042644083501,-8.114692804068328 2.9905682907998563,-11.522549693584441 L7.40879867808431,3.9072531003153443 M58.28435541511982,3.9633402775621533 L58.28435541511982,3.9633402775621533 M7.40879867808431,3.4585556823408723 c-0.10768738031387334,0 -0.2153747606277467,0.04038276761770262 -0.30062727004289685,0.11441784158349048 c-0.13012225121259702,0.11666132867336276 -0.17947896718978884,0.2961402958631518 -0.13012225121259702,0.46215834051370625 l4.652992224395275,15.583261326253412 c-1.9338858714699758,3.522274731099605 -2.9569159844517707,7.5201687252521525 -2.9569159844517707,11.57639338374138 c0,6.420860051214695 2.4902706697583197,12.455840322971344 7.013140642940998,16.996658192873003 c4.5228699731826785,4.540817869901657 10.535415374040603,7.042305975109339 16.9315970672667,7.042305975109339 c13.207408498078584,-0.002243487089872363 23.949224684387445,-10.786685928106307 23.94698119729757,-24.043451142162084 c0,-3.9575112265348436 -0.9781603711843481,-7.867909224182368 -2.8267937332391737,-11.329609803855421 l4.964836929887533,-15.740305422544479 c0.017947896718978926,-0.049356715977192 0.02916533216834077,-0.10095691904425615 0.02916533216834077,-0.15704409629106575 c0,-0.24678357988595964 -0.19967035099864022,-0.4464539308846002 -0.4464539308846002,-0.4486974179744729 c-0.002243487089872363,0 -0.002243487089872363,0 -0.004486974179744726,0 c-0.008973948359489474,0 -0.017947896718978926,0 -0.026921845078468367,0 c0,0 0,0 0,0 c0,0 0,0 0,0 c-0.05608717724680911,0.002243487089872363 -0.10993086740374568,0.017947896718978926 -0.15928758338093799,0.04038276761770262 l-14.52209193274379,6.2615724678337585 c-3.362987147718668,-1.7409459817409514 -7.145506381243468,-2.660775688588619 -10.954947459846734,-2.660775688588619 c-3.6905362628400322,0 -7.226271916478873,0.8211162748932839 -10.515223990231751,2.438670466691256 l-14.524335419833658,-6.097797910273075 C7.527703493847525,3.4697731177902256 7.4671293424210035,3.4585556823408723 7.40879867808431,3.4585556823408723 L7.40879867808431,3.4585556823408723 z" id="svg_8" fill="#ffffff" fill-opacity="1"/>
</g><g class="" fill="#ffffff" fill-opacity="1" id="svg_1">
	<path d="M32.621106594069886,55.00715854633809 c-13.077286246865988,0 -23.71814551413059,-10.683485521972178 -23.720389001220465,-23.812371971905232 c0,-4.049494197219611 1.027517087161541,-8.04065773010254 2.9726203940808773,-11.54947153866291 l-4.679914069473743,-15.673000809848308 c-0.024678357988596043,-0.08300902232527752 0,-0.17274850592017174 0.06506112560629868,-0.23107917025685312 c0.04262625470757495,-0.03813928052783013 0.09646994486451178,-0.0583306643366815 0.15031363502144862,-0.0583306643366815 c0.02916533216834077,0 0.0583306643366815,0.0067304612696171 0.08749599650502222,0.017947896718978926 l14.618561877608299,6.1381806778907775 c3.2844650995731355,-1.6310151143372058 6.817957266122103,-2.458861850500107 10.504006554782391,-2.458861850500107 c3.8116845656931395,0 7.59420379921794,0.928803655207157 10.948216998577116,2.6854540465772154 l14.629779313057659,-6.3064422096312045 c0.02916533216834077,-0.011217435449361835 0.0583306643366815,-0.017947896718978926 0.08973948359489442,-0.017947896718978926 c0.053843690156936824,0 0.10768738031387334,0.020191383808851302 0.15031363502144862,0.0583306643366815 c0.06506112560629868,0.0583306643366815 0.08973948359489442,0.15031363502144862 0.06281763851642608,0.23332265734672547 l-5.00073272332549,15.852479777038097 c1.8620942845940593,3.45048314422369 2.8447416299581527,7.3519071935117255 2.8447416299581527,11.307174932956695 c0.002243487089872363,13.131129937022925 -10.638615780174733,23.816858946084974 -23.720389001220465,23.819102433174848 H32.621106594069886 z" id="svg_9" fill="#ffffff" fill-opacity="1"/>
	<path d="M7.40879867808431,3.9072531003153443 l14.712788335382937,6.1785634455084795 c3.1588298225402833,-1.5861453725397587 6.723730808347463,-2.4812967213988304 10.497276093512774,-2.4812967213988304 c0,0 0.002243487089872363,0 0.002243487089872363,0 c3.9485372781753543,0 7.668238873183727,0.9781603711843481 10.936999563127756,2.7101324045658113 l14.726249257922174,-6.34906846433878 l-5.014193645864726,15.895106031745671 l-0.08749599650502222,-0.08076553523540524 c1.8710682329535486,3.380935044437647 2.9344811135530473,7.275628632456064 2.9344811135530473,11.412618826180696 c0.002243487089872363,13.027929530888796 -10.519710964411498,23.592510237097738 -23.49604029223323,23.594753724187612 c0,0 -0.002243487089872363,0 -0.002243487089872363,0 c-12.976329327821732,0 -23.493796805143354,-10.56233721911907 -23.49604029223323,-23.588023262917996 c0,-4.184103422611951 1.0836042644083501,-8.114692804068328 2.9905682907998563,-11.522549693584441 L7.40879867808431,3.9072531003153443 M58.28435541511982,3.9633402775621533 L58.28435541511982,3.9633402775621533 M7.40879867808431,3.4585556823408723 c-0.10768738031387334,0 -0.2153747606277467,0.04038276761770262 -0.30062727004289685,0.11441784158349048 c-0.13012225121259702,0.11666132867336276 -0.17947896718978884,0.2961402958631518 -0.13012225121259702,0.46215834051370625 l4.652992224395275,15.583261326253412 c-1.9338858714699758,3.522274731099605 -2.9569159844517707,7.5201687252521525 -2.9569159844517707,11.57639338374138 c0,6.420860051214695 2.4902706697583197,12.455840322971344 7.013140642940998,16.996658192873003 c4.5228699731826785,4.540817869901657 10.535415374040603,7.042305975109339 16.9315970672667,7.042305975109339 c13.207408498078584,-0.002243487089872363 23.949224684387445,-10.786685928106307 23.94698119729757,-24.043451142162084 c0,-3.9575112265348436 -0.9781603711843481,-7.867909224182368 -2.8267937332391737,-11.329609803855421 l4.964836929887533,-15.740305422544479 c0.017947896718978926,-0.049356715977192 0.02916533216834077,-0.10095691904425615 0.02916533216834077,-0.15704409629106575 c0,-0.24678357988595964 -0.19967035099864022,-0.4464539308846002 -0.4464539308846002,-0.4486974179744729 c-0.002243487089872363,0 -0.002243487089872363,0 -0.004486974179744726,0 c-0.008973948359489474,0 -0.017947896718978926,0 -0.026921845078468367,0 c0,0 0,0 0,0 c0,0 0,0 0,0 c-0.05608717724680911,0.002243487089872363 -0.10993086740374568,0.017947896718978926 -0.15928758338093799,0.04038276761770262 l-14.52209193274379,6.2615724678337585 c-3.362987147718668,-1.7409459817409514 -7.145506381243468,-2.660775688588619 -10.954947459846734,-2.660775688588619 c-3.6905362628400322,0 -7.226271916478873,0.8211162748932839 -10.515223990231751,2.438670466691256 l-14.524335419833658,-6.097797910273075 C7.527703493847525,3.4697731177902256 7.4671293424210035,3.4585556823408723 7.40879867808431,3.4585556823408723 L7.40879867808431,3.4585556823408723 z" id="svg_11" fill="#ffffff" fill-opacity="1"/>
</g><g class="" id="svg_13">
	<path d="M32.84653318730835,38.10323116209463 c-0.01570440962910655,0 -0.03140881925821313,-0.006730461269617103 -0.04262625470757498,-0.017947896718978933 l-3.883476152569055,-4.296277777105569 c-0.01570440962910655,-0.01570440962910655 -0.017947896718978933,-0.04038276761770263 -0.008973948359489475,-0.06057415142655385 s0.02916533216834077,-0.03365230634808561 0.0516002030670643,-0.03365230634808561 h7.769195792227984 c0.022434870898723674,0 0.04262625470757498,0.013460922539234206 0.0516002030670643,0.03365230634808561 s0.004486974179744726,0.04486974179744735 -0.008973948359489475,0.06057415142655385 l-3.883476152569055,4.296277777105569 C32.8779420065666,38.096500700825004 32.86223759693749,38.10323116209463 32.84653318730835,38.10323116209463 z" id="svg_15"/>
	<path d="M36.73000933987743,33.75086620774225 L36.73000933987743,33.75086620774225 M36.73000933987743,33.75086620774225 l-3.883476152569055,4.296277777105569 l-3.883476152569055,-4.296277777105569 H36.73000933987743 M36.73225282696731,33.63869185324863 L36.73225282696731,33.63869185324863 h-7.769195792227984 c-0.04486974179744735,0 -0.08525250941515004,0.026921845078468367 -0.10320040613412858,0.067304612696171 c-0.017947896718978933,0.04038276761770263 -0.011217435449361839,0.08749599650502222 0.02019138380885131,0.12114830285310746 l3.883476152569055,4.296277777105569 c0.02019138380885131,0.022434870898723674 0.0516002030670643,0.03589579343795783 0.08300902232527754,0.03589579343795783 s0.06281763851642608,-0.013460922539234206 0.08300902232527754,-0.03589579343795783 l3.8789891783893107,-4.291790802925825 c0.02019138380885131,-0.02019138380885131 0.03365230634808561,-0.049356715977192 0.03365230634808561,-0.08076553523540526 C36.84442718146093,33.6902920563157 36.79282697839386,33.63869185324863 36.73225282696731,33.63869185324863 L36.73225282696731,33.63869185324863 zM36.73000933987743,33.86304056223587 L36.73000933987743,33.86304056223587 L36.73000933987743,33.86304056223587 L36.73000933987743,33.86304056223587 z" id="svg_17"/>
</g><g id="svg_3" class="">
	<path d="M32.84653318730835,38.10323116209463 c-0.01570440962910655,0 -0.03140881925821313,-0.006730461269617103 -0.04262625470757498,-0.017947896718978933 l-3.883476152569055,-4.296277777105569 c-0.01570440962910655,-0.01570440962910655 -0.017947896718978933,-0.04038276761770263 -0.008973948359489475,-0.06057415142655385 s0.02916533216834077,-0.03365230634808561 0.0516002030670643,-0.03365230634808561 h7.769195792227984 c0.022434870898723674,0 0.04262625470757498,0.013460922539234206 0.0516002030670643,0.03365230634808561 s0.004486974179744726,0.04486974179744735 -0.008973948359489475,0.06057415142655385 l-3.883476152569055,4.296277777105569 C32.8779420065666,38.096500700825004 32.86223759693749,38.10323116209463 32.84653318730835,38.10323116209463 z" id="svg_4"/>
	<path d="M36.73000933987743,33.75086620774225 L36.73000933987743,33.75086620774225 M36.73000933987743,33.75086620774225 l-3.883476152569055,4.296277777105569 l-3.883476152569055,-4.296277777105569 H36.73000933987743 M36.73225282696731,33.63869185324863 L36.73225282696731,33.63869185324863 h-7.769195792227984 c-0.04486974179744735,0 -0.08525250941515004,0.026921845078468367 -0.10320040613412858,0.067304612696171 c-0.017947896718978933,0.04038276761770263 -0.011217435449361839,0.08749599650502222 0.02019138380885131,0.12114830285310746 l3.883476152569055,4.296277777105569 c0.02019138380885131,0.022434870898723674 0.0516002030670643,0.03589579343795783 0.08300902232527754,0.03589579343795783 s0.06281763851642608,-0.013460922539234206 0.08300902232527754,-0.03589579343795783 l3.8789891783893107,-4.291790802925825 c0.02019138380885131,-0.02019138380885131 0.03365230634808561,-0.049356715977192 0.03365230634808561,-0.08076553523540526 C36.84442718146093,33.6902920563157 36.79282697839386,33.63869185324863 36.73225282696731,33.63869185324863 L36.73225282696731,33.63869185324863 zM36.73000933987743,33.86304056223587 L36.73000933987743,33.86304056223587 L36.73000933987743,33.86304056223587 L36.73000933987743,33.86304056223587 z" id="svg_5"/>
</g></g></g></svg>